<svg width="18" height="19" viewBox="0 0 18 19" fill="none" xmlns="http://www.w3.org/2000/svg">
<path d="M16.44 5.29056C16.3638 5.1073 16.2182 4.96167 16.035 4.88556C15.9448 4.84713 15.848 4.82675 15.75 4.82556H12C11.801 4.82556 11.6103 4.90458 11.4696 5.04523C11.329 5.18588 11.25 5.37665 11.25 5.57556C11.25 5.77447 11.329 5.96524 11.4696 6.10589C11.6103 6.24654 11.801 6.32556 12 6.32556H13.9425L9.74995 10.5181L7.28245 8.04306C7.21273 7.97277 7.12978 7.91697 7.03839 7.87889C6.94699 7.84082 6.84896 7.82121 6.74995 7.82121C6.65095 7.82121 6.55292 7.84082 6.46152 7.87889C6.37013 7.91697 6.28718 7.97277 6.21745 8.04306L1.71745 12.5431C1.64716 12.6128 1.59136 12.6957 1.55329 12.7871C1.51521 12.8785 1.49561 12.9766 1.49561 13.0756C1.49561 13.1746 1.51521 13.2726 1.55329 13.364C1.59136 13.4554 1.64716 13.5383 1.71745 13.6081C1.78718 13.6784 1.87013 13.7342 1.96152 13.7722C2.05292 13.8103 2.15095 13.8299 2.24995 13.8299C2.34896 13.8299 2.44699 13.8103 2.53839 13.7722C2.62978 13.7342 2.71273 13.6784 2.78245 13.6081L6.74995 9.63306L9.21745 12.1081C9.28718 12.1784 9.37013 12.2342 9.46152 12.2722C9.55292 12.3103 9.65095 12.3299 9.74995 12.3299C9.84896 12.3299 9.94699 12.3103 10.0384 12.2722C10.1298 12.2342 10.2127 12.1784 10.2825 12.1081L15 7.38306V9.32556C15 9.52447 15.079 9.71524 15.2196 9.85589C15.3603 9.99654 15.551 10.0756 15.75 10.0756C15.9489 10.0756 16.1396 9.99654 16.2803 9.85589C16.4209 9.71524 16.5 9.52447 16.5 9.32556V5.57556C16.4988 5.47755 16.4784 5.38073 16.44 5.29056Z" fill="#D4D4D4"/>
</svg>
