<svg width="15" height="16" viewBox="0 0 15 16" fill="none" xmlns="http://www.w3.org/2000/svg">
<g clip-path="url(#clip0_14_77)">
<path d="M3.04687 15.3572H2.10937C1.92289 15.3572 1.74405 15.2831 1.61219 15.1512C1.48033 15.0194 1.40625 14.8405 1.40625 14.6541V10.4353C1.40625 10.2488 1.48033 10.07 1.61219 9.93812C1.74405 9.80626 1.92289 9.73218 2.10937 9.73218H3.04687C3.23335 9.73218 3.4122 9.80626 3.54406 9.93812C3.67592 10.07 3.75 10.2488 3.75 10.4353V14.6541C3.75 14.8405 3.67592 15.0194 3.54406 15.1512C3.4122 15.2831 3.23335 15.3572 3.04687 15.3572Z" fill="#D4D4D4"/>
<path d="M9.60937 15.3564H8.67187C8.48539 15.3564 8.30655 15.2824 8.17469 15.1505C8.04283 15.0186 7.96875 14.8398 7.96875 14.6533V7.62207C7.96875 7.43559 8.04283 7.25675 8.17469 7.12489C8.30655 6.99302 8.48539 6.91895 8.67187 6.91895H9.60937C9.79585 6.91895 9.9747 6.99302 10.1066 7.12489C10.2384 7.25675 10.3125 7.43559 10.3125 7.62207V14.6533C10.3125 14.8398 10.2384 15.0186 10.1066 15.1505C9.9747 15.2824 9.79585 15.3564 9.60937 15.3564Z" fill="#D4D4D4"/>
<path d="M12.8906 15.3567H11.9531C11.7666 15.3567 11.5878 15.2826 11.4559 15.1507C11.3241 15.0189 11.25 14.84 11.25 14.6536V4.34106C11.25 4.15458 11.3241 3.97574 11.4559 3.84388C11.5878 3.71202 11.7666 3.63794 11.9531 3.63794H12.8906C13.0771 3.63794 13.2559 3.71202 13.3878 3.84388C13.5197 3.97574 13.5937 4.15458 13.5937 4.34106V14.6536C13.5937 14.84 13.5197 15.0189 13.3878 15.1507C13.2559 15.2826 13.0771 15.3567 12.8906 15.3567Z" fill="#D4D4D4"/>
<path d="M6.32812 15.3566H5.39062C5.20414 15.3566 5.0253 15.2825 4.89344 15.1506C4.76158 15.0188 4.6875 14.8399 4.6875 14.6534V1.99719C4.6875 1.81071 4.76158 1.63187 4.89344 1.50001C5.0253 1.36815 5.20414 1.29407 5.39062 1.29407H6.32812C6.5146 1.29407 6.69345 1.36815 6.82531 1.50001C6.95717 1.63187 7.03125 1.81071 7.03125 1.99719V14.6534C7.03125 14.8399 6.95717 15.0188 6.82531 15.1506C6.69345 15.2825 6.5146 15.3566 6.32812 15.3566Z" fill="#D4D4D4"/>
</g>
<defs>
<clipPath id="clip0_14_77">
<rect width="15" height="15" fill="white" transform="translate(0 0.825562)"/>
</clipPath>
</defs>
</svg>
