<svg width="24" height="24" viewBox="0 0 24 24" fill="none" xmlns="http://www.w3.org/2000/svg">
<path d="M6 1.99988H15C15.5304 1.99988 16.0391 2.21059 16.4142 2.58566C16.7893 2.96074 17 3.46944 17 3.99988V5.99988H15V3.99988H6V19.9999H15V17.9999H17V19.9999C17 20.5303 16.7893 21.039 16.4142 21.4141C16.0391 21.7892 15.5304 21.9999 15 21.9999H6C5.46957 21.9999 4.96086 21.7892 4.58579 21.4141C4.21071 21.039 4 20.5303 4 19.9999V3.99988C4 3.46944 4.21071 2.96074 4.58579 2.58566C4.96086 2.21059 5.46957 1.99988 6 1.99988Z" fill="white"/>
<path d="M16.09 15.5899L17.5 16.9999L22.5 11.9999L17.5 6.99988L16.09 8.40988L18.67 10.9999H9V12.9999H18.67L16.09 15.5899Z" fill="white"/>
</svg>
