<svg width="15" height="16" viewBox="0 0 15 16" fill="none" xmlns="http://www.w3.org/2000/svg">
<path fill-rule="evenodd" clip-rule="evenodd" d="M13.3691 0.825562C13.2586 0.825562 13.1691 0.915105 13.1691 1.02556V2.24229H12.782C12.3954 2.24229 12.082 2.55569 12.082 2.94229V11.6934C12.082 12.08 12.3954 12.3934 12.782 12.3934H13.1691V13.6102C13.1691 13.7206 13.2586 13.8102 13.3691 13.8102H13.664C13.7744 13.8102 13.864 13.7206 13.864 13.6102V12.3934H14.2508C14.6374 12.3934 14.9508 12.08 14.9508 11.6934V2.94229C14.9508 2.55569 14.6374 2.24229 14.2508 2.24229H13.864V1.02556C13.864 0.915105 13.7744 0.825562 13.664 0.825562H13.3691ZM1.28691 0.949341C1.17646 0.949341 1.08691 1.03888 1.08691 1.14934V2.36606H0.7C0.313401 2.36606 0 2.67947 0 3.06607V11.2781C0 11.6647 0.313401 11.9781 0.7 11.9781H1.08691V13.1948C1.08691 13.3053 1.17646 13.3948 1.28691 13.3948H1.58178C1.69223 13.3948 1.78178 13.3053 1.78178 13.1948V11.9781H2.1688C2.5554 11.9781 2.8688 11.6647 2.8688 11.2781V3.06606C2.8688 2.67947 2.5554 2.36606 2.1688 2.36606H1.78178V1.14934C1.78178 1.03888 1.69223 0.949341 1.58178 0.949341H1.28691ZM5.11436 3.53477C5.11436 3.42431 5.2039 3.33477 5.31436 3.33477H5.60922C5.71968 3.33477 5.80922 3.42431 5.80922 3.53477V4.75149H6.19624C6.58284 4.75149 6.89624 5.06489 6.89624 5.45149V9.94929C6.89624 10.3359 6.58284 10.6493 6.19624 10.6493H5.80922V11.866C5.80922 11.9765 5.71968 12.066 5.60922 12.066H5.31436C5.2039 12.066 5.11436 11.9765 5.11436 11.866V10.6493H4.72744C4.34084 10.6493 4.02744 10.3359 4.02744 9.94929V5.45149C4.02744 5.06489 4.34084 4.75149 4.72744 4.75149H5.11436V3.53477ZM9.34165 4.69758C9.23119 4.69758 9.14165 4.78713 9.14165 4.89758V6.11431H8.75474C8.36814 6.11431 8.05474 6.42771 8.05474 6.81431V13.7088C8.05474 14.0954 8.36814 14.4088 8.75474 14.4088H9.14165V15.6255C9.14165 15.736 9.23119 15.8255 9.34165 15.8255H9.63651C9.74697 15.8255 9.83651 15.736 9.83651 15.6255V14.4088H10.2235C10.6101 14.4088 10.9235 14.0954 10.9235 13.7088V6.81431C10.9235 6.42771 10.6101 6.11431 10.2235 6.11431H9.83651V4.89758C9.83651 4.78713 9.74697 4.69758 9.63651 4.69758H9.34165Z" fill="white"/>
</svg>
